<?xml version="1.0" ?><svg class="svg-button" viewBox="0 0 24 24" xmlns="http://www.w3.org/2000/svg"><path d="M 0 176 L 151 176 L 151 327.363281 L 0 327.363281 Z M 0 176 " clip-rule="nonzero"/></clipPath><clipPath id="e36798c85e"><path d="M 224 176 L 374.707031 176 L 374.707031 327.363281 L 224 327.363281 Z M 224 176 " clip-rule="nonzero"/></clipPath></defs><g clip-path="url(#6c7ba786dc)"><path fill="#000000" d="M 75.070312 187.910156 C 39.8125 187.910156 11.121094 216.640625 11.121094 251.953125 C 11.121094 287.265625 39.8125 316 75.070312 316 C 110.328125 316 139.015625 287.265625 139.015625 251.953125 C 139.015625 216.640625 110.328125 187.910156 75.070312 187.910156 Z M 75.070312 327.375 C 33.546875 327.375 -0.238281 293.539062 -0.238281 251.953125 C -0.238281 210.367188 33.546875 176.53125 75.070312 176.53125 C 116.589844 176.53125 150.375 210.367188 150.375 251.953125 C 150.375 293.539062 116.589844 327.375 75.070312 327.375 " fill-opacity="1" fill-rule="nonzero"/></g><path fill="#000000" d="M 75.070312 213.152344 C 53.707031 213.152344 36.328125 230.558594 36.328125 251.953125 C 36.328125 273.347656 53.707031 290.753906 75.070312 290.753906 C 96.429688 290.753906 113.808594 273.347656 113.808594 251.953125 C 113.808594 230.558594 96.429688 213.152344 75.070312 213.152344 Z M 75.070312 302.128906 C 47.445312 302.128906 24.96875 279.621094 24.96875 251.953125 C 24.96875 224.285156 47.445312 201.773438 75.070312 201.773438 C 102.691406 201.773438 125.171875 224.285156 125.171875 251.953125 C 125.171875 279.621094 102.691406 302.128906 75.070312 302.128906 " fill-opacity="1" fill-rule="nonzero"/><path fill="#000000" d="M 24.722656 209.210938 C 24.722656 209.210938 24.730469 209.21875 24.730469 209.226562 C 24.730469 209.21875 24.722656 209.210938 24.722656 209.210938 Z M 24.804688 210.019531 Z M 144.695312 257.644531 C 141.558594 257.644531 139.015625 255.09375 139.015625 251.953125 L 139.015625 98.78125 C 139.015625 90.148438 135.84375 82.214844 130.308594 76.996094 C 123.136719 70.214844 113.535156 67.832031 101.671875 69.808594 C 91.738281 71.488281 83.175781 78.039062 78.757812 87.304688 C 39.960938 168.835938 25.492188 204.160156 24.828125 209.847656 C 25.101562 212.691406 23.199219 215.34375 20.34375 215.953125 C 17.328125 216.628906 14.257812 214.632812 13.617188 211.570312 C 12.957031 208.464844 11.589844 201.996094 68.507812 82.414062 C 74.507812 69.800781 86.199219 60.890625 99.777344 58.59375 C 115.09375 56.003906 128.324219 59.492188 138.105469 68.710938 C 145.898438 76.074219 150.375 87.03125 150.375 98.78125 L 150.375 251.953125 C 150.375 255.09375 147.832031 257.644531 144.695312 257.644531 " fill-opacity="1" fill-rule="nonzero"/><g clip-path="url(#e36798c85e)"><path fill="#000000" d="M 299.34375 187.90625 C 264.085938 187.90625 235.398438 216.640625 235.398438 251.953125 C 235.398438 287.265625 264.085938 316 299.34375 316 C 334.605469 316 363.292969 287.265625 363.292969 251.953125 C 363.292969 216.640625 334.605469 187.90625 299.34375 187.90625 Z M 299.34375 327.375 C 257.820312 327.375 224.039062 293.539062 224.039062 251.953125 C 224.039062 210.367188 257.820312 176.53125 299.34375 176.53125 C 340.867188 176.53125 374.652344 210.367188 374.652344 251.953125 C 374.652344 293.539062 340.867188 327.375 299.34375 327.375 " fill-opacity="1" fill-rule="nonzero"/></g><path fill="#000000" d="M 299.34375 213.152344 C 277.984375 213.152344 260.605469 230.558594 260.605469 251.953125 C 260.605469 273.347656 277.984375 290.753906 299.34375 290.753906 C 320.703125 290.753906 338.089844 273.347656 338.089844 251.953125 C 338.089844 230.558594 320.703125 213.152344 299.34375 213.152344 Z M 299.34375 302.128906 C 271.722656 302.128906 249.242188 279.621094 249.242188 251.953125 C 249.242188 224.285156 271.722656 201.773438 299.34375 201.773438 C 326.972656 201.773438 349.449219 224.285156 349.449219 251.953125 C 349.449219 279.621094 326.972656 302.128906 299.34375 302.128906 " fill-opacity="1" fill-rule="nonzero"/><path fill="#000000" d="M 349.6875 209.210938 C 349.6875 209.210938 349.679688 209.222656 349.679688 209.226562 C 349.679688 209.222656 349.6875 209.210938 349.6875 209.210938 Z M 349.605469 210.023438 Z M 229.71875 257.644531 C 226.582031 257.644531 224.035156 255.097656 224.035156 251.953125 L 224.035156 98.78125 C 224.035156 87.03125 228.511719 76.074219 236.304688 68.714844 C 246.085938 59.492188 259.390625 56.019531 274.632812 58.597656 C 288.210938 60.890625 299.902344 69.800781 305.902344 82.421875 C 362.820312 202 361.453125 208.464844 360.796875 211.570312 C 360.144531 214.636719 357.085938 216.628906 354.0625 215.953125 C 351.210938 215.347656 349.308594 212.695312 349.582031 209.851562 C 348.917969 204.160156 334.449219 168.835938 295.652344 87.308594 C 291.238281 78.042969 282.671875 71.492188 272.734375 69.808594 C 260.917969 67.828125 251.277344 70.21875 244.101562 76.996094 C 238.566406 82.21875 235.398438 90.148438 235.398438 98.78125 L 235.398438 251.953125 C 235.398438 255.097656 232.851562 257.644531 229.71875 257.644531 " fill-opacity="1" fill-rule="nonzero"/><path fill="#000000" d="M 229.71875 203.828125 L 144.695312 203.828125 C 141.558594 203.828125 139.015625 201.277344 139.015625 198.136719 C 139.015625 194.996094 141.558594 192.449219 144.695312 192.449219 L 229.71875 192.449219 C 232.855469 192.449219 235.398438 194.996094 235.398438 198.136719 C 235.398438 201.277344 232.855469 203.828125 229.71875 203.828125 " fill-opacity="1" fill-rule="nonzero"/><path fill="#000000" d="M 229.71875 104.46875 C 228.296875 104.46875 226.878906 103.941406 225.777344 102.878906 C 187.804688 66.273438 150.214844 101.378906 148.621094 102.882812 C 146.367188 105.054688 142.761719 104.972656 140.597656 102.710938 C 138.429688 100.445312 138.496094 96.851562 140.753906 94.683594 C 141.21875 94.222656 187.746094 50.425781 233.660156 94.683594 C 235.917969 96.863281 235.984375 100.460938 233.808594 102.726562 C 232.699219 103.886719 231.207031 104.46875 229.71875 104.46875 " fill-opacity="1" fill-rule="nonzero"/><path fill="#000000" d="M 229.71875 172.492188 C 228.296875 172.492188 226.878906 171.964844 225.777344 170.902344 C 187.804688 134.292969 150.214844 169.402344 148.621094 170.910156 C 146.367188 173.078125 142.761719 172.996094 140.597656 170.738281 C 138.429688 168.472656 138.496094 164.878906 140.753906 162.707031 C 141.21875 162.246094 187.746094 118.441406 233.660156 162.707031 C 235.917969 164.882812 235.984375 168.488281 233.808594 170.753906 C 232.699219 171.90625 231.207031 172.492188 229.71875 172.492188 " fill-opacity="1" fill-rule="nonzero"/><path fill="#000000" d="M 137.699219 82.519531 C 137.359375 82.519531 137.011719 82.492188 136.667969 82.425781 C 133.578125 81.863281 131.539062 78.898438 132.105469 75.808594 L 134.597656 62.1875 C 135.507812 57.230469 134.382812 52.253906 131.445312 48.171875 C 128.511719 44.089844 124.15625 41.453125 119.179688 40.75 C 110.214844 39.488281 101.582031 45.082031 99.070312 53.789062 L 94.386719 69.992188 C 93.507812 73.015625 90.378906 74.742188 87.351562 73.882812 C 84.335938 73.011719 82.597656 69.851562 83.46875 66.839844 L 88.152344 50.628906 C 92.234375 36.511719 106.265625 27.371094 120.769531 29.488281 C 128.832031 30.621094 135.898438 34.894531 140.664062 41.519531 C 145.433594 48.140625 147.246094 56.207031 145.765625 64.238281 L 143.273438 77.855469 C 142.777344 80.601562 140.382812 82.519531 137.699219 82.519531 " fill-opacity="1" fill-rule="nonzero"/><path fill="#000000" d="M 234.457031 82.519531 C 231.773438 82.519531 229.382812 80.601562 228.882812 77.859375 L 226.382812 64.238281 C 224.902344 56.207031 226.722656 48.140625 231.488281 41.527344 C 236.25 34.894531 243.320312 30.621094 251.390625 29.488281 C 265.886719 27.371094 279.914062 36.511719 284 50.628906 L 288.679688 66.839844 C 289.550781 69.851562 287.8125 73.011719 284.796875 73.882812 C 281.75 74.734375 278.632812 73.015625 277.761719 69.992188 L 273.082031 53.789062 C 270.574219 45.089844 261.898438 39.503906 252.980469 40.75 C 247.992188 41.453125 243.636719 44.089844 240.699219 48.179688 C 237.765625 52.261719 236.648438 57.230469 237.550781 62.179688 L 240.050781 75.804688 C 240.621094 78.890625 238.582031 81.863281 235.492188 82.425781 C 235.148438 82.492188 234.800781 82.519531 234.457031 82.519531"/></svg>
