<?xml version="1.0" encoding="UTF-8" standalone="no"?>
<svg
   width="20"
   zoomAndPan="magnify"
   viewBox="0 0 400 400"
   height="20"
   preserveAspectRatio="xMidYMid"
   version="1.0"
   id="svg16"
   sodipodi:docname="calendar.svg"
   inkscape:version="1.3 (0e150ed, 2023-07-21)"
   xmlns:inkscape="http://www.inkscape.org/namespaces/inkscape"
   xmlns:sodipodi="http://sodipodi.sourceforge.net/DTD/sodipodi-0.dtd"
   xmlns="http://www.w3.org/2000/svg"
   xmlns:svg="http://www.w3.org/2000/svg">
  <defs
     id="defs16" />
  <sodipodi:namedview
     id="namedview16"
     pagecolor="#505050"
     bordercolor="#eeeeee"
     borderopacity="1"
     inkscape:showpageshadow="0"
     inkscape:pageopacity="0"
     inkscape:pagecheckerboard="0"
     inkscape:deskcolor="#505050"
     inkscape:zoom="1.52"
     inkscape:cx="250"
     inkscape:cy="249.67105"
     inkscape:window-width="1392"
     inkscape:window-height="1212"
     inkscape:window-x="0"
     inkscape:window-y="25"
     inkscape:window-maximized="0"
     inkscape:current-layer="svg16" />
  <path
     fill="#000000"
     d="M 348.75,45 H 315 V 7.5 C 315,3.359375 311.64844,0 307.5,0 303.35156,0 300,3.359375 300,7.5 V 45 H 75 V 7.5 C 75,3.359375 71.640625,0 67.5,0 63.359375,0 60,3.359375 60,7.5 V 45 H 26.25 C 11.773438,45 0,56.773438 0,71.25 v 277.5 C 0,363.22656 11.773438,375 26.25,375 h 322.5 C 363.22656,375 375,363.22656 375,348.75 V 71.25 C 375,56.773438 363.22656,45 348.75,45 Z M 26.25,60 H 60 v 22.5 c 0,4.140625 3.359375,7.5 7.5,7.5 4.140625,0 7.5,-3.359375 7.5,-7.5 V 60 h 225 v 22.5 c 0,4.140625 3.35156,7.5 7.5,7.5 4.14844,0 7.5,-3.359375 7.5,-7.5 V 60 h 33.75 C 354.95312,60 360,65.046875 360,71.25 V 120 H 15 V 71.25 C 15,65.046875 20.046875,60 26.25,60 Z m 322.5,300 H 26.25 C 20.046875,360 15,354.95312 15,348.75 V 135 h 345 v 213.75 c 0,6.20312 -5.04688,11.25 -11.25,11.25 z m 0,0"
     fill-opacity="1"
     fill-rule="nonzero"
     id="path1" />
  <path
     fill="#000000"
     d="m 52.5,172.5 h 30 v 30 h -30 z m 0,0"
     fill-opacity="1"
     fill-rule="nonzero"
     id="path2" />
  <path
     fill="#000000"
     d="m 112.5,172.5 h 30 v 30 h -30 z m 0,0"
     fill-opacity="1"
     fill-rule="nonzero"
     id="path3" />
  <path
     fill="#000000"
     d="m 172.5,172.5 h 30 v 30 h -30 z m 0,0"
     fill-opacity="1"
     fill-rule="nonzero"
     id="path4" />
  <path
     fill="#000000"
     d="m 232.5,172.5 h 30 v 30 h -30 z m 0,0"
     fill-opacity="1"
     fill-rule="nonzero"
     id="path5" />
  <path
     fill="#000000"
     d="m 292.5,172.5 h 30 v 30 h -30 z m 0,0"
     fill-opacity="1"
     fill-rule="nonzero"
     id="path6" />
  <path
     fill="#000000"
     d="m 52.5,232.5 h 30 v 30 h -30 z m 0,0"
     fill-opacity="1"
     fill-rule="nonzero"
     id="path7" />
  <path
     fill="#000000"
     d="m 112.5,232.5 h 30 v 30 h -30 z m 0,0"
     fill-opacity="1"
     fill-rule="nonzero"
     id="path8" />
  <path
     fill="#000000"
     d="m 172.5,232.5 h 30 v 30 h -30 z m 0,0"
     fill-opacity="1"
     fill-rule="nonzero"
     id="path9" />
  <path
     fill="#000000"
     d="m 232.5,232.5 h 30 v 30 h -30 z m 0,0"
     fill-opacity="1"
     fill-rule="nonzero"
     id="path10" />
  <path
     fill="#000000"
     d="m 292.5,232.5 h 30 v 30 h -30 z m 0,0"
     fill-opacity="1"
     fill-rule="nonzero"
     id="path11" />
  <path
     fill="#000000"
     d="m 52.5,292.5 h 30 v 30 h -30 z m 0,0"
     fill-opacity="1"
     fill-rule="nonzero"
     id="path12" />
  <path
     fill="#000000"
     d="m 112.5,292.5 h 30 v 30 h -30 z m 0,0"
     fill-opacity="1"
     fill-rule="nonzero"
     id="path13" />
  <path
     fill="#000000"
     d="m 172.5,292.5 h 30 v 30 h -30 z m 0,0"
     fill-opacity="1"
     fill-rule="nonzero"
     id="path14" />
  <path
     fill="#000000"
     d="m 232.5,292.5 h 30 v 30 h -30 z m 0,0"
     fill-opacity="1"
     fill-rule="nonzero"
     id="path15" />
  <path
     fill="#000000"
     d="m 292.5,292.5 h 30 v 30 h -30 z m 0,0"
     fill-opacity="1"
     fill-rule="nonzero"
     id="path16" />
</svg>
