<svg xmlns="http://www.w3.org/2000/svg" xmlns:xlink="http://www.w3.org/1999/xlink" width="500" zoomAndPan="magnify" viewBox="0 0 375 374.999991" height="500" preserveAspectRatio="xMidYMid meet" version="1.0"><path fill="#000000" d="M 168.035156 130.101562 C 214.652344 130.101562 249.796875 112.421875 249.796875 88.980469 C 248.613281 34.453125 87.429688 34.484375 86.273438 88.984375 C 86.273438 112.421875 121.421875 130.101562 168.035156 130.101562 Z M 168.035156 60.550781 C 208.75 60.550781 237.117188 75.53125 237.117188 88.980469 C 237.117188 102.429688 208.75 117.410156 168.035156 117.410156 C 127.324219 117.410156 98.953125 102.429688 98.953125 88.980469 C 98.953125 75.53125 127.324219 60.550781 168.035156 60.550781 Z M 168.035156 60.550781 " fill-opacity="1" fill-rule="nonzero"/><path fill="#000000" d="M 344.636719 126.453125 C 339.25 90.816406 316.117188 66.902344 295.636719 52.300781 C 236.359375 -0.0117188 25.605469 6.667969 19.4375 88.984375 C 19.480469 89.183594 19.363281 188.023438 19.480469 188.191406 C 19.695312 220.289062 63.875 247.464844 127.265625 255.890625 C 112.484375 265.886719 97.523438 275.742188 82.78125 285.222656 C 82.113281 285.65625 81.472656 286.125 80.859375 286.632812 C 80.246094 287.140625 79.667969 287.679688 79.121094 288.257812 C 78.570312 288.835938 78.058594 289.445312 77.585938 290.082031 C 77.109375 290.722656 76.675781 291.386719 76.28125 292.078125 C 75.882812 292.765625 75.53125 293.480469 75.222656 294.210938 C 74.910156 294.945312 74.644531 295.695312 74.425781 296.457031 C 74.203125 297.222656 74.03125 298 73.902344 298.785156 C 73.773438 299.570312 73.695312 300.359375 73.660156 301.15625 C 73.628906 301.953125 73.640625 302.746094 73.703125 303.539062 C 73.765625 304.332031 73.875 305.121094 74.03125 305.902344 C 74.1875 306.679688 74.390625 307.449219 74.636719 308.207031 C 74.886719 308.960938 75.179688 309.703125 75.515625 310.421875 C 75.851562 311.144531 76.230469 311.84375 76.652344 312.519531 C 77.070312 313.195312 77.53125 313.84375 78.027344 314.464844 C 78.527344 315.085938 79.058594 315.671875 79.628906 316.230469 C 80.195312 316.785156 80.796875 317.308594 81.425781 317.792969 L 148.621094 369.59375 C 149.480469 370.253906 150.390625 370.839844 151.347656 371.351562 C 152.304688 371.867188 153.296875 372.300781 154.320312 372.652344 C 155.347656 373.003906 156.398438 373.269531 157.46875 373.449219 C 158.539062 373.632812 159.613281 373.722656 160.699219 373.730469 C 161.785156 373.734375 162.863281 373.652344 163.9375 373.484375 C 165.007812 373.3125 166.058594 373.058594 167.089844 372.714844 C 168.121094 372.375 169.117188 371.953125 170.078125 371.449219 C 171.039062 370.945312 171.953125 370.367188 172.820312 369.714844 C 297.050781 275.949219 354.859375 194.105469 344.636719 126.453125 Z M 168.035156 31.089844 C 183.425781 30.894531 198.710938 32.0625 213.890625 34.59375 C 229.074219 37.128906 243.910156 40.984375 258.402344 46.164062 C 270.257812 51.105469 281.292969 57.464844 291.511719 65.246094 C 308.960938 80.535156 307.519531 100.089844 289.429688 114.546875 C 266.816406 133.515625 220.320312 146.871094 168.035156 146.871094 C 94.359375 146.871094 32.117188 120.359375 32.117188 88.980469 C 32.117188 57.601562 94.359375 31.089844 168.035156 31.089844 Z M 32.136719 187.957031 C 32.070312 187.878906 32.144531 118.058594 32.117188 117.964844 C 54.992188 142.691406 106.585938 159.558594 168.035156 159.558594 C 210.25 159.558594 247.808594 151.59375 274.617188 138.597656 C 251.589844 165.859375 200.25 205.605469 143.851562 244.550781 L 143.851562 204.238281 C 143.851562 203.824219 143.8125 203.410156 143.730469 203 C 143.648438 202.59375 143.53125 202.195312 143.371094 201.8125 C 143.210938 201.425781 143.015625 201.058594 142.785156 200.714844 C 142.554688 200.367188 142.289062 200.046875 141.996094 199.753906 C 141.703125 199.457031 141.382812 199.195312 141.035156 198.964844 C 140.6875 198.730469 140.324219 198.535156 139.9375 198.375 C 139.554688 198.21875 139.160156 198.097656 138.75 198.015625 C 138.34375 197.933594 137.929688 197.894531 137.511719 197.894531 C 137.097656 197.894531 136.683594 197.933594 136.277344 198.015625 C 135.867188 198.097656 135.472656 198.21875 135.085938 198.375 C 134.703125 198.535156 134.335938 198.730469 133.992188 198.964844 C 133.644531 199.195312 133.324219 199.457031 133.03125 199.753906 C 132.734375 200.046875 132.472656 200.367188 132.242188 200.714844 C 132.011719 201.058594 131.816406 201.425781 131.65625 201.8125 C 131.496094 202.195312 131.375 202.59375 131.296875 203 C 131.214844 203.410156 131.171875 203.824219 131.171875 204.238281 L 131.171875 243.660156 C 122.285156 242.574219 113.476562 241.035156 104.75 239.039062 L 104.75 197.496094 C 104.75 197.082031 104.707031 196.667969 104.628906 196.257812 C 104.546875 195.851562 104.425781 195.453125 104.265625 195.070312 C 104.105469 194.683594 103.910156 194.320312 103.679688 193.972656 C 103.449219 193.625 103.1875 193.304688 102.890625 193.011719 C 102.597656 192.714844 102.277344 192.453125 101.929688 192.222656 C 101.585938 191.988281 101.21875 191.792969 100.835938 191.636719 C 100.449219 191.476562 100.054688 191.355469 99.644531 191.273438 C 99.238281 191.191406 98.824219 191.152344 98.410156 191.152344 C 97.992188 191.152344 97.582031 191.191406 97.171875 191.273438 C 96.765625 191.355469 96.367188 191.476562 95.984375 191.636719 C 95.597656 191.792969 95.234375 191.988281 94.886719 192.222656 C 94.539062 192.453125 94.21875 192.714844 93.925781 193.011719 C 93.632812 193.304688 93.367188 193.625 93.136719 193.972656 C 92.90625 194.320312 92.710938 194.683594 92.550781 195.070312 C 92.390625 195.453125 92.273438 195.851562 92.191406 196.257812 C 92.109375 196.667969 92.070312 197.082031 92.070312 197.496094 L 92.070312 235.765625 C 82.96875 233.164062 74.160156 229.800781 65.636719 225.679688 L 65.636719 181.445312 C 65.632812 181.03125 65.585938 180.625 65.5 180.21875 C 65.414062 179.816406 65.292969 179.425781 65.128906 179.042969 C 64.96875 178.664062 64.769531 178.304688 64.539062 177.964844 C 64.308594 177.621094 64.042969 177.304688 63.75 177.015625 C 63.457031 176.726562 63.136719 176.46875 62.792969 176.242188 C 62.449219 176.011719 62.085938 175.820312 61.703125 175.664062 C 61.324219 175.507812 60.929688 175.390625 60.523438 175.308594 C 60.121094 175.230469 59.710938 175.191406 59.296875 175.191406 C 58.886719 175.191406 58.476562 175.230469 58.074219 175.308594 C 57.667969 175.390625 57.273438 175.507812 56.894531 175.664062 C 56.511719 175.820312 56.148438 176.011719 55.804688 176.242188 C 55.460938 176.46875 55.140625 176.726562 54.847656 177.015625 C 54.554688 177.304688 54.289062 177.621094 54.058594 177.964844 C 53.824219 178.304688 53.628906 178.664062 53.464844 179.046875 C 53.304688 179.425781 53.179688 179.816406 53.09375 180.21875 C 53.011719 180.625 52.964844 181.03125 52.957031 181.445312 L 52.957031 218.332031 C 39.808594 209.386719 32.136719 198.9375 32.136719 187.957031 Z M 165.183594 359.585938 C 164.546875 360.0625 163.847656 360.429688 163.09375 360.679688 C 162.335938 360.929688 161.558594 361.050781 160.761719 361.046875 C 159.964844 361.042969 159.191406 360.914062 158.4375 360.65625 C 157.683594 360.394531 156.992188 360.023438 156.359375 359.539062 L 89.164062 307.738281 C 88.9375 307.5625 88.722656 307.371094 88.515625 307.167969 C 88.3125 306.964844 88.117188 306.75 87.9375 306.527344 C 87.757812 306.300781 87.59375 306.0625 87.441406 305.820312 C 87.289062 305.574219 87.152344 305.320312 87.03125 305.058594 C 86.910156 304.796875 86.804688 304.527344 86.714844 304.253906 C 86.625 303.980469 86.554688 303.699219 86.496094 303.417969 C 86.441406 303.132812 86.398438 302.847656 86.378906 302.5625 C 86.355469 302.273438 86.347656 301.984375 86.359375 301.695312 C 86.371094 301.410156 86.402344 301.121094 86.445312 300.835938 C 86.492188 300.550781 86.554688 300.269531 86.632812 299.992188 C 86.714844 299.714844 86.808594 299.441406 86.921875 299.175781 C 87.03125 298.910156 87.160156 298.652344 87.300781 298.402344 C 87.441406 298.148438 87.597656 297.90625 87.769531 297.675781 C 87.941406 297.441406 88.125 297.222656 88.324219 297.011719 C 88.519531 296.800781 88.730469 296.601562 88.949219 296.417969 C 89.171875 296.230469 89.402344 296.058594 89.640625 295.898438 C 96.324219 291.601562 103.441406 286.980469 110.839844 282.117188 L 184.945312 344.296875 C 178.550781 349.359375 171.960938 354.457031 165.183594 359.585938 Z M 296.757812 233.367188 L 282.335938 219.5 C 282.035156 219.214844 281.707031 218.957031 281.359375 218.734375 C 281.007812 218.511719 280.636719 218.324219 280.25 218.175781 C 279.863281 218.023438 279.464844 217.914062 279.054688 217.839844 C 278.648438 217.769531 278.234375 217.738281 277.820312 217.746094 C 277.402344 217.753906 276.992188 217.804688 276.585938 217.894531 C 276.179688 217.984375 275.789062 218.113281 275.40625 218.28125 C 275.027344 218.445312 274.667969 218.648438 274.328125 218.886719 C 273.984375 219.125 273.671875 219.394531 273.382812 219.695312 C 273.097656 219.996094 272.839844 220.320312 272.617188 220.671875 C 272.390625 221.019531 272.203125 221.390625 272.054688 221.777344 C 271.902344 222.164062 271.789062 222.5625 271.714844 222.972656 C 271.644531 223.382812 271.609375 223.792969 271.617188 224.210938 C 271.625 224.625 271.675781 225.035156 271.761719 225.441406 C 271.851562 225.847656 271.980469 226.242188 272.144531 226.625 C 272.3125 227.003906 272.511719 227.367188 272.75 227.707031 C 272.988281 228.050781 273.253906 228.363281 273.554688 228.652344 L 289.070312 243.570312 C 282.8125 251.59375 275.894531 259.757812 268.324219 268.054688 L 247.441406 251.175781 C 247.113281 250.925781 246.769531 250.707031 246.402344 250.523438 C 246.035156 250.335938 245.652344 250.1875 245.257812 250.078125 C 244.859375 249.96875 244.457031 249.898438 244.046875 249.863281 C 243.636719 249.832031 243.230469 249.839844 242.820312 249.886719 C 242.414062 249.933594 242.011719 250.023438 241.621094 250.148438 C 241.230469 250.273438 240.855469 250.433594 240.492188 250.632812 C 240.132812 250.832031 239.796875 251.0625 239.480469 251.328125 C 239.164062 251.59375 238.878906 251.882812 238.621094 252.203125 C 238.363281 252.523438 238.136719 252.867188 237.945312 253.230469 C 237.753906 253.59375 237.597656 253.972656 237.480469 254.367188 C 237.363281 254.761719 237.285156 255.164062 237.246094 255.574219 C 237.203125 255.984375 237.203125 256.390625 237.242188 256.800781 C 237.285156 257.210938 237.363281 257.613281 237.480469 258.007812 C 237.597656 258.402344 237.753906 258.78125 237.945312 259.144531 C 238.136719 259.507812 238.359375 259.851562 238.617188 260.171875 C 238.875 260.492188 239.164062 260.785156 239.476562 261.046875 L 259.640625 277.34375 C 252.109375 285.195312 244.015625 293.152344 235.355469 301.21875 L 215.035156 280.878906 C 214.738281 280.59375 214.417969 280.339844 214.070312 280.121094 C 213.726562 279.898438 213.363281 279.710938 212.980469 279.558594 C 212.597656 279.40625 212.203125 279.292969 211.800781 279.21875 C 211.398438 279.144531 210.988281 279.109375 210.578125 279.113281 C 210.167969 279.117188 209.761719 279.160156 209.359375 279.242188 C 208.957031 279.328125 208.566406 279.449219 208.1875 279.609375 C 207.808594 279.765625 207.449219 279.960938 207.105469 280.191406 C 206.765625 280.417969 206.449219 280.679688 206.160156 280.96875 C 205.871094 281.261719 205.609375 281.578125 205.378906 281.917969 C 205.152344 282.261719 204.957031 282.621094 204.796875 283 C 204.636719 283.378906 204.515625 283.769531 204.433594 284.171875 C 204.351562 284.574219 204.308594 284.980469 204.304688 285.394531 C 204.300781 285.804688 204.335938 286.210938 204.410156 286.617188 C 204.484375 287.019531 204.597656 287.414062 204.75 287.796875 C 204.902344 288.179688 205.085938 288.542969 205.308594 288.890625 C 205.53125 289.234375 205.785156 289.554688 206.070312 289.851562 L 225.988281 309.789062 C 216.3125 318.480469 205.992188 327.28125 195.03125 336.199219 L 121.878906 274.820312 C 194.183594 226.75 287.464844 159.066406 298.730469 123.078125 C 301.242188 121.125 303.53125 118.9375 305.597656 116.519531 C 307.664062 114.097656 309.460938 111.496094 310.992188 108.707031 C 312.527344 105.917969 313.761719 103.003906 314.695312 99.960938 C 315.632812 96.917969 316.253906 93.816406 316.554688 90.648438 C 346.804688 135.847656 333.429688 180.640625 296.753906 233.367188 Z M 296.757812 233.367188 " fill-opacity="1" fill-rule="nonzero"/></svg>